{
  "asset": {
    "copyright": "@Sp0ne",
    "generator": "Khronos glTF Blender I/O v1.8.19",
    "version": "2.0"
  },
  "scene": 0,
  "scenes": [
    {
      "name": "Scene",
      "nodes": [0]
    }
  ],
  "nodes": [
    {
      "mesh": 0,
      "name": "Elephant",
      "scale": [0.7742786407470703, 0.7742786407470703, 0.7742786407470703]
    }
  ],
  "materials": [
    {
      "doubleSided": true,
      "name": "Material",
      "pbrMetallicRoughness": {
        "baseColorTexture": {
          "index": 0
        },
        "metallicFactor": 0,
        "roughnessFactor": 0
      }
    }
  ],
  "meshes": [
    {
      "name": "Cube.002",
      "primitives": [
        {
          "attributes": {
            "POSITION": 0,
            "NORMAL": 1,
            "TEXCOORD_0": 2
          },
          "indices": 3,
          "material": 0
        }
      ]
    }
  ],
  "textures": [
    {
      "sampler": 0,
      "source": 0
    }
  ],
  "images": [
    {
      "bufferView": 4,
      "mimeType": "image/png",
      "name": "ImphenziaPalette01"
    }
  ],
  "accessors": [
    {
      "bufferView": 0,
      "componentType": 5126,
      "count": 1725,
      "max": [7.563949108123779, 12.432250022888184, 11.766165733337402],
      "min": [-7.563949108123779, 0.033184051513671875, -7.200872421264648],
      "type": "VEC3"
    },
    {
      "bufferView": 1,
      "componentType": 5126,
      "count": 1725,
      "type": "VEC3"
    },
    {
      "bufferView": 2,
      "componentType": 5126,
      "count": 1725,
      "type": "VEC2"
    },
    {
      "bufferView": 3,
      "componentType": 5123,
      "count": 3054,
      "type": "SCALAR"
    }
  ],
  "bufferViews": [
    {
      "buffer": 0,
      "byteLength": 20700,
      "byteOffset": 0
    },
    {
      "buffer": 0,
      "byteLength": 20700,
      "byteOffset": 20700
    },
    {
      "buffer": 0,
      "byteLength": 13800,
      "byteOffset": 41400
    },
    {
      "buffer": 0,
      "byteLength": 6108,
      "byteOffset": 55200
    },
    {
      "buffer": 0,
      "byteLength": 1126,
      "byteOffset": 61308
    }
  ],
  "samplers": [
    {
      "magFilter": 9728,
      "minFilter": 9984
    }
  ],
  "buffers": [
    {
      "byteLength": 62436,
      "uri": "data:application/octet-stream;base64,"
    }
  ]
}
